<svg id="Calque_1" data-name="Calque 1" xmlns="http://www.w3.org/2000/svg" viewBox="0 0 566.93 566.93"><defs><style>.cls-1{fill:#1d1d1b;}</style></defs><path class="cls-1" d="M76.25,274.44V427.89H67.1V274.44H25.94v-9.15H541v9.15Z"/><path class="cls-1" d="M220.63,427.89h-9.15V407.57a68.61,68.61,0,0,1-5.79,6.81,53.86,53.86,0,0,1-39.53,16.36,55.83,55.83,0,0,1-39.43-95.33,53.73,53.73,0,0,1,39.43-16.36,53.86,53.86,0,0,1,39.53,16.36,68.61,68.61,0,0,1,5.79,6.81V328.1h9.15ZM211.48,384V365.9a46.33,46.33,0,0,0-45.32-37.09,46.09,46.09,0,1,0,32.62,78.66A44.46,44.46,0,0,0,211.48,384Z"/><path class="cls-1" d="M262.28,297.65h9.15v44.47a58.46,58.46,0,0,1,5.79-6.71,55.82,55.82,0,0,1,78.91,79,55.76,55.76,0,0,1-78.91,0,58.46,58.46,0,0,1-5.79-6.71v20.22h-9.15Zm9.15,67.74V384.5a46.26,46.26,0,0,0,77.84,23A46.12,46.12,0,0,0,284,342.32,44.57,44.57,0,0,0,271.43,365.39Z"/><path class="cls-1" d="M415.28,297.65V427.89h-9.15V297.65Z"/><path class="cls-1" d="M464.77,409.19A43.91,43.91,0,0,0,495.46,421a44.44,44.44,0,0,0,32.62-13.51c1.15-1.16,2.24-2.34,3.25-3.56l9.66,3.46a59.13,59.13,0,0,1-6,7,55.84,55.84,0,1,1-79-79,53.73,53.73,0,0,1,39.43-16.36q19.82,0,34.65,11.89,2.45,2,4.88,4.47c.61.61,1.19,1.22,1.73,1.83l-6.91,6.91ZM523.1,338a46.11,46.11,0,0,0-64.53,64.54Z"/><path class="cls-1" d="M136.31,166.38a95.41,95.41,0,0,0,6.8-13.14c4.54,1.9,10.76-.47,14.7-5.91,4.4-6.09,4.26-13.71-.31-17s-11.85-1.05-16.25,5c-4.29,5.94-4.27,13.32-.05,16.75-1.37,3.2-2.69,6-4,8.51A45.39,45.39,0,0,1,126.39,174c-1.31,1.12-2.62,2.23-3.53,3l-.17.15L120,179.43a171.13,171.13,0,0,0-26.93,30.09c-1.44,2-2.27,2.35-8.7,14.22h0q-2.34,4.41-4.32,8.9A96.46,96.46,0,0,0,78.41,223c2.09-6,6.69-22.07,3.35-39.26-4.24-21.77-22-49.31-22-49.31s-6.15,32.19-1.91,54c3.29,16.91,13.31,29.93,17.62,34.9a81,81,0,0,1,2.15,15.38,126,126,0,0,0-8.22,46l4,0c0-1.13,0-2.26,0-3.37l.12-3.76c1.43-28.85,12.75-52.46,26.65-70.84,7.58-1.14,14.79,6.07,22.86,7.17,4.74,3.52,15.71,10.6,29.32,12.37,18.31,2.38,44.73-4.4,44.73-4.4s-23.8-13.32-42.11-15.71c-14.18-1.84-27.07,2.61-32.16,4.72-6.86-.91-12.5-8-19.38-7.49,8.8-5.91,22.14-9.92,31.76-12.25,1.83,4.12,7.1,7,13.22,6.82,7.51-.23,13.47-5,13.3-10.63s-6.4-10-13.92-9.8-13.46,5-13.29,10.63a7.53,7.53,0,0,0,.07.83c-8.36,2-19.47,5.3-28.22,10.07a176.83,176.83,0,0,1,19-18.91C130.1,176,133.12,171.48,136.31,166.38Z"/><path class="cls-1" d="M487.53,154c-1.84-1.82-3.28-1.51-3.49-4.1,0-.21-.29-2.25-.32-2.62l-1-24.35h0l-.28-6.89.06,0,.09,0,.19-.08.08,0,.12-.08s0,0,0,0a.17.17,0,0,0,.06-.11V104c0-.6-3.5-1.08-7.83-1.08s-7.82.48-7.82,1.08v11.62c0,.12.22.26.61.4l-.05,1.34-1.18,30-.1,2.56c-.27,2-1.67,2.29-3.45,4.07a30.68,30.68,0,0,0-8.94,21.74v87.2a7.7,7.7,0,0,0,5.35,7.54,56.34,56.34,0,0,0,15.11,2.15A57.18,57.18,0,0,0,490,270.69l1.05-.27a7.71,7.71,0,0,0,5.47-7.57V175.73A30.56,30.56,0,0,0,487.53,154Zm4.2,59.41-7.44-56s5.69,1.82,7.44,14.85C492.18,175.79,491.73,213.4,491.73,213.4Z"/><path class="cls-1" d="M265.17,271.75c23.95,0,44.75-18,44.75-40.22,0-.75,0-1.49-.08-2.22h-8.18c0,18.74-16.38,34-36.49,34s-36.48-15.24-36.49-34h-8c-.05.73-.08,1.47-.08,2.22C220.63,253.71,241.21,271.75,265.17,271.75Z"/><path class="cls-1" d="M373.66,267.86a23.3,23.3,0,0,0,8.73,1.55c.91,0,1.81,0,2.72,0a23.27,23.27,0,0,0,8.73-1.55,1.94,1.94,0,0,0,1.19-1.79V215.81c0-.34,0-.68,0-1,0-.71-.09-3.16-3-6.94a9.73,9.73,0,0,1-2-5.3l-1.49-22.64s2.18-.93.59-3.59a3.85,3.85,0,0,0-.38-.52,1.24,1.24,0,0,1-.3-.71,1.34,1.34,0,0,1,.45-1.14.86.86,0,0,0,.15-1.34,1.51,1.51,0,0,0-1.09-.44h-8.42a1.5,1.5,0,0,0-1.08.44.86.86,0,0,0,.14,1.34,1.34,1.34,0,0,1,.45,1.14,1.25,1.25,0,0,1-.29.71,3.92,3.92,0,0,0-.39.52c-1.58,2.66.6,3.59.6,3.59l-1.5,22.64a9.65,9.65,0,0,1-2,5.3c-2.93,3.78-3.06,6.23-3,6.94,0,.33,0,.67,0,1v50.26A1.94,1.94,0,0,0,373.66,267.86Z"/></svg>